# xmcd CD database file
#
# Track frame offsets:
#	150
#	10792
#	34337
#	52511
#	76420
#	87838
#	110571
#	132892
#
# Disc length: 1956 seconds
#
# Revision: 0
# Processed by: cddbd v1.5.1PL0 Copyright (c) Steve Scherf et al.
# Submitted via: CDex 1.51
#
DISCID=5507a208
DTITLE=Peggy Chew - Sonic Calligraphy
DYEAR=2002
DGENRE=Jazz
TTITLE0=The girl from the ali mountain
TTITLE1=The orchid
TTITLE2=My lonely room
TTITLE3=Kangding love song
TTITLE4=Roast pork bun
TTITLE5=Pick it up this morning
TTITLE6=Li Bai's mood
TTITLE7=Ram's dance
EXTD=YEAR: 2002
EXTT0=
EXTT1=
EXTT2=
EXTT3=
EXTT4=
EXTT5=
EXTT6=
EXTT7=
PLAYORDER=
